# Blender v3.2.0 OBJ File: 'pen_well_defined_uv.blend'
# www.blender.org
mtllib Hen_Pen_UVFixed_2.mtl
o Hex_Pen
v -0.004000 -0.085000 -0.000000
v 0.000000 -0.085000 -0.000000
v -0.002000 -0.085000 0.003464
v 0.002000 -0.085000 0.003464
v 0.004000 -0.085000 -0.000000
v 0.002000 -0.085000 -0.003464
v -0.002000 -0.085000 -0.003464
v -0.002000 0.065000 0.003464
v 0.000000 0.085000 0.000000
v -0.004000 0.065000 0.000000
v 0.002000 0.065000 0.003464
v 0.004000 0.065000 0.000000
v 0.002000 0.065000 -0.003464
v -0.002000 0.065000 -0.003464
vt 0.064258 0.031018
vt 0.042260 0.031011
vt 0.053265 0.011964
vt 0.031267 0.011957
vt 0.020262 0.031004
vt 0.031255 0.050058
vt 0.053253 0.050065
vt 0.094881 0.887703
vt 0.041955 0.986597
vt 0.074562 0.879275
vt 0.113165 0.899934
vt 0.128710 0.915499
vt 0.140917 0.933799
vt 0.052989 0.874975
vt 0.030991 0.874968
vt 0.096984 0.874989
vt 0.074987 0.874982
vt 0.075250 0.050072
vt 0.097248 0.050079
vt 0.118982 0.874996
vt 0.119246 0.050086
vt 0.140980 0.875003
vt 0.141243 0.050093
vt 0.162977 0.875010
vt 0.163241 0.050100
vn 0.0000 -1.0000 0.0000
vn -0.8533 0.1707 0.4927
vn 0.0000 0.1707 0.9853
vn 0.8533 0.1707 0.4927
vn 0.8533 0.1707 -0.4927
vn 0.0000 0.1707 -0.9853
vn -0.8533 0.1707 -0.4927
vn -0.8660 -0.0000 0.5000
vn 0.0000 -0.0000 1.0000
vn 0.8660 -0.0000 0.5000
vn 0.8660 0.0000 -0.5000
vn 0.0000 0.0000 -1.0000
vn -0.8660 0.0000 -0.5000
usemtl ProBuilderDefault
s 1
f 1/1/1 2/2/1 3/3/1
f 3/3/1 2/2/1 4/4/1
f 4/4/1 2/2/1 5/5/1
f 5/5/1 2/2/1 6/6/1
f 6/6/1 2/2/1 7/7/1
f 7/7/1 2/2/1 1/1/1
f 8/8/2 9/9/2 10/10/2
f 11/11/3 9/9/3 8/8/3
f 12/12/4 9/9/4 11/11/4
f 13/13/5 9/9/5 12/12/5
f 14/14/6 9/9/6 13/15/6
f 10/10/7 9/9/7 14/14/7
f 8/16/8 10/17/8 1/18/8
f 1/18/8 3/19/8 8/16/8
f 11/20/9 8/16/9 3/19/9
f 3/19/9 4/21/9 11/20/9
f 12/22/10 11/20/10 4/21/10
f 4/21/10 5/23/10 12/22/10
f 13/24/11 12/22/11 5/23/11
f 5/23/11 6/25/11 13/24/11
f 14/14/12 13/15/12 6/6/12
f 6/6/12 7/7/12 14/14/12
f 10/17/13 14/14/13 7/7/13
f 7/7/13 1/18/13 10/17/13
